<svg width="46" height="40" viewBox="0 0 46 40" fill="none" xmlns="http://www.w3.org/2000/svg">
<path d="M19.5817 2.62455C21.1397 0.061082 24.8603 0.0610827 26.4182 2.62455L45.2873 33.6726C46.9073 36.3383 44.9884 39.75 41.869 39.75H4.13094C1.01163 39.75 -0.90732 36.3383 0.712694 33.6726L19.5817 2.62455Z" fill="#FFCC0D"/>
<path d="M24.6047 15.16V20.92L24.1967 25.888H21.5567L21.1487 20.92V15.16H24.6047ZM22.8767 27.52C23.5007 27.52 23.9967 27.688 24.3647 28.024C24.7327 28.36 24.9167 28.808 24.9167 29.368C24.9167 29.944 24.7327 30.4 24.3647 30.736C23.9967 31.056 23.5007 31.216 22.8767 31.216C22.2527 31.216 21.7567 31.056 21.3887 30.736C21.0207 30.4 20.8367 29.944 20.8367 29.368C20.8367 28.808 21.0207 28.36 21.3887 28.024C21.7567 27.688 22.2527 27.52 22.8767 27.52Z" fill="white"/>
</svg>
